<svg xmlns="http://www.w3.org/2000/svg" viewBox="0 0 512 512"><path d="M227.555 71.111v156.445H512v-28.445H256v-128h-28.445zm0 213.334V440.89H256v-128h256v-28.445H227.555zM0 284.445v28.445h156.445v128h28.445V284.445H0zM156.445 71.111v128H0v28.445h184.889V71.111h-28.444z" fill="#ffce00"/><path d="M184.889 71.111v156.445H0v56.875h184.889v156.444h42.681V284.43H512v-56.875H227.57V71.11h-42.681z" fill="#d21034"/><path d="M256 312.889v128h199.111C486.53 440.889 512 415.416 512 384v-71.111H256zm-256 0V384c0 31.418 25.473 56.889 56.889 56.889h99.555v-128H0zM156.445 71.111H56.889C25.472 71.111 0 96.582 0 128v71.111h156.445v-128zm298.666 0H256v128h256V128c0-31.418-25.473-56.889-56.889-56.889" fill="#0053a5"/></svg>